<svg width="24" height="22" viewBox="0 0 24 22" fill="none" xmlns="http://www.w3.org/2000/svg">
<path fill-rule="evenodd" clip-rule="evenodd" d="M13.1114 0C10.0463 0 7.4969 1.13328 5.08684 3.56721C4.3889 4.27267 3.24116 5.44075 2.22271 6.47823V2.24466H0V10.3262H8.00013V8.08116H3.77806C4.79923 7.04095 5.95626 5.86388 6.65768 5.15528C8.65045 3.14252 10.6405 2.24466 13.1114 2.24466C17.8897 2.24466 21.7769 6.17242 21.7769 11.0004C21.7769 15.828 17.8897 19.7561 13.1114 19.7561C8.71161 19.7561 5.08219 16.4192 4.53368 12.1219H2.28542C2.84516 17.662 7.48219 22 13.1114 22C19.1152 22 24 17.0657 24 11.0004C24 4.93434 19.1152 0 13.1114 0Z" fill="#007398"/>
</svg>
